<svg version="1.1" xmlns="http://www.w3.org/2000/svg" viewBox="-3153.998799317487 -1842.8161346435547 10086.47908038438 3123.4562438964845"><desc>Created with Snap</desc><defs></defs><g><rect x="-3153.998799317487" y="-1842.8161346435547" width="10086.47908038438" height="3123.4562438964845" fill="#3c787e" style=""></rect><g transform="matrix(40.2092,0,0,40.2092,-2887.008,-1607.9927)"><g><path d="M14.8,37.2l-3.5-11.8l11.6-1.8c0.4,3.6,1.5,6.9,3.7,10.2l-9.2-5.5c-0.5-0.3-1.1-0.1-1.4,0.4c-0.3,0.5-0.1,1.1,0.4,1.4   l9.4,5.6c-0.9-0.1-1.8-0.2-2.7-0.2C20.5,35.5,17.7,35.9,14.8,37.2z" fill="#ffffff" style=""></path><path d="M9.5,58.4c-3.7,0-6.9-0.5-8.5-0.9c5.9-16.5,15.2-20,22-20c3.2,0,6,0.8,7.7,1.4l-5.2,2.8l-7-2c-0.6-0.2-1.1,0.2-1.3,0.7   c-0.2,0.6,0.2,1.1,0.7,1.3l5,1.4l-6,3.3l-5-0.9c-0.6-0.1-1.1,0.3-1.2,0.8c-0.1,0.6,0.3,1.1,0.8,1.2l2.5,0.4l-6,3.3   c-0.5,0.3-0.7,0.9-0.4,1.4c0.2,0.3,0.5,0.5,0.9,0.5c0.2,0,0.3,0,0.5-0.1l4.7-2.5l-0.3,2.5c-0.1,0.6,0.3,1.1,0.9,1.2   c0,0,0.1,0,0.1,0c0.5,0,1-0.4,1-0.9l0.5-3.9l6-3.3l-1.3,3.9c-0.2,0.5,0.1,1.1,0.7,1.3c0.4,0.2,1.1-0.1,1.3-0.7l2-6l7.2-3.9   C29.5,55.3,18.5,58.4,9.5,58.4z" fill="#ffffff" style=""></path><path d="M40.4,55.9l-7.2,8.3l-7.4-8.4c2.5-1.9,4.6-4.4,6.2-7.9l-0.1,10.4c0,0.6,0.4,1,1,1.1c0,0,0,0,0,0c0.6,0,1-0.5,1-1l0.1-10.4   C35.6,51.4,37.8,54,40.4,55.9z" fill="#ffffff" style=""></path><path d="M25,24C24.2,17,27.3,9.6,34.2,1.8c2.3,2.8,9.4,12,8.4,21.6c-0.6,5.2-3.4,9.7-8.4,13.5v-8.2l4.3-4.7   c0.4-0.4,0.4-1.1-0.1-1.5c-0.4-0.4-1.1-0.4-1.5,0.1l-2.8,3v-6.9l3.2-2.3c0.5-0.3,0.6-1,0.3-1.5c-0.3-0.5-1-0.6-1.5-0.3l-2,1.4v-5.3   c0-0.6-0.5-1-1-1c-0.6,0-1,0.5-1,1v6.9l-1.6-2c-0.4-0.4-1-0.5-1.5-0.2c-0.4,0.4-0.5,1-0.2,1.5l3.2,4v6.8l-3.7-3.7   c-0.4-0.4-1.1-0.4-1.5,0c-0.4,0.4-0.4,1.1,0,1.5l5.1,5.2v5.9C29.8,34.8,25.8,30.4,25,24z" fill="#ffffff" style=""></path><path d="M40.2,34.1c2.3-2.9,3.8-6.1,4.3-9.5l11.6,1.8l-3.4,11.6c-3.4-1.8-6.8-2.4-9.8-2.4c-0.3,0-0.7,0-1,0l8.1-4.1   c0.5-0.3,0.7-0.9,0.5-1.4c-0.3-0.5-0.9-0.7-1.4-0.4L40.2,34.1z" fill="#ffffff" style=""></path><path d="M65,57.6c-1.6,0.3-4.8,0.9-8.5,0.9c-9.1,0-20.1-3.1-22.4-17.7l7.2,3.9l2,6c0.2,0.6,0.8,0.8,1.3,0.7   c0.5-0.2,0.8-0.8,0.7-1.3l-1.3-3.9l6,3.3l0.5,3.9c0.1,0.5,0.5,0.9,1,0.9c0,0,0.1,0,0.1,0c0.6-0.1,1-0.6,0.9-1.2l-0.3-2.5l4.7,2.5   c0.6,0.3,1.2,0.1,1.4-0.4c0.3-0.5,0.1-1.1-0.4-1.4l-6-3.3l2.5-0.4c0.6-0.1,0.9-0.6,0.8-1.2c-0.1-0.6-0.6-0.9-1.2-0.8l-5,0.9l-6-3.3   l5-1.4c0.6-0.2,0.9-0.7,0.7-1.3c-0.2-0.6-0.7-0.9-1.3-0.7l-7,2L35.3,39c1.7-0.6,4.5-1.4,7.7-1.4C49.8,37.6,59.1,41.1,65,57.6z" fill="#ffffff" style=""></path></g><desc>Created with Snap</desc><defs></defs></g><g><g transform="matrix(1.024,0,0,-1.024,0,0)"><path d="M33 274Q33 357 65 424Q98 491 161 530Q225 570 314 570Q357 570 388 562Q419 554 462 540L458 386L393 386L371 488Q365 516 295 516Q225 516 184 459Q144 403 144 299Q144 181 189 119Q235 58 308 58Q350 58 387 71Q425 84 452 102L471 62Q444 34 391 11Q339 -11 285 -11Q203 -11 146 26Q90 63 61 127Q33 192 33 274ZM558 150Q558 244 652 288Q746 333 890 336L890 364Q890 411 880 438Q870 465 845 477Q821 490 776 490Q725 490 684 475Q644 461 604 440L579 492Q592 503 627 521Q662 539 708 553Q754 567 800 567Q871 567 912 547Q954 528 972 485Q990 442 990 370L990 49L1049 49L1049 5Q1029 0 998 -5Q968 -10 945 -10Q917 -10 907 -2Q897 7 897 36L897 69Q867 39 823 14Q780 -11 725 -11Q653 -11 605 30Q558 72 558 150ZM768 57Q794 57 828 73Q862 89 890 111L890 283Q781 283 725 249Q670 216 670 162Q670 108 696 82Q723 57 768 57ZM1179 58L1179 478L1107 496L1107 550L1250 568L1253 568L1274 550L1274 508L1273 484Q1309 516 1368 542Q1427 568 1481 568Q1544 568 1578 544Q1613 520 1627 470Q1641 421 1641 337L1641 57L1711 50L1711 0L1474 0L1474 49L1536 57L1536 338Q1536 397 1528 430Q1520 464 1498 480Q1476 497 1434 497Q1398 497 1357 479Q1316 461 1284 437L1284 58L1352 49L1352 0L1116 0L1116 49L1179 58ZM1843 58L1843 478L1771 496L1771 550L1914 568L1917 568L1938 550L1938 508L1937 484Q1973 516 2032 542Q2091 568 2145 568Q2208 568 2242 544Q2277 520 2291 470Q2305 421 2305 337L2305 57L2375 50L2375 0L2138 0L2138 49L2200 57L2200 338Q2200 397 2192 430Q2184 464 2162 480Q2140 497 2098 497Q2062 497 2021 479Q1980 461 1948 437L1948 58L2016 49L2016 0L1780 0L1780 49L1843 58ZM2447 150Q2447 244 2541 288Q2635 333 2779 336L2779 364Q2779 411 2769 438Q2759 465 2734 477Q2710 490 2665 490Q2614 490 2573 475Q2533 461 2493 440L2468 492Q2481 503 2516 521Q2551 539 2597 553Q2643 567 2689 567Q2760 567 2801 547Q2843 528 2861 485Q2879 442 2879 370L2879 49L2938 49L2938 5Q2918 0 2887 -5Q2857 -10 2834 -10Q2806 -10 2796 -2Q2786 7 2786 36L2786 69Q2756 39 2712 14Q2669 -11 2614 -11Q2542 -11 2494 30Q2447 72 2447 150ZM2657 57Q2683 57 2717 73Q2751 89 2779 111L2779 283Q2670 283 2614 249Q2559 216 2559 162Q2559 108 2585 82Q2612 57 2657 57ZM2996 274Q2996 357 3028 424Q3061 491 3124 530Q3188 570 3277 570Q3320 570 3351 562Q3382 554 3425 540L3421 386L3356 386L3334 488Q3328 516 3258 516Q3188 516 3147 459Q3107 403 3107 299Q3107 181 3152 119Q3198 58 3271 58Q3313 58 3350 71Q3388 84 3415 102L3434 62Q3407 34 3354 11Q3302 -11 3248 -11Q3166 -11 3109 26Q3053 63 3024 127Q2996 192 2996 274ZM3575 57L3575 746L3491 757L3491 800L3654 819L3656 819L3678 804L3678 572L3674 487Q3706 516 3762 542Q3818 568 3875 568Q3938 568 3973 544Q4008 520 4022 470Q4036 421 4036 337L4036 58L4106 49L4106 0L3867 0L3867 49L3932 58L3932 338Q3932 397 3924 430Q3916 464 3894 480Q3872 497 3828 497Q3792 497 3751 479Q3710 461 3679 437L3679 58L3748 49L3748 0L3515 0L3515 49L3575 57ZM4180 150Q4180 244 4274 288Q4368 333 4512 336L4512 364Q4512 411 4502 438Q4492 465 4467 477Q4443 490 4398 490Q4347 490 4306 475Q4266 461 4226 440L4201 492Q4214 503 4249 521Q4284 539 4330 553Q4376 567 4422 567Q4493 567 4534 547Q4576 528 4594 485Q4612 442 4612 370L4612 49L4671 49L4671 5Q4651 0 4620 -5Q4590 -10 4567 -10Q4539 -10 4529 -2Q4519 7 4519 36L4519 69Q4489 39 4445 14Q4402 -11 4347 -11Q4275 -11 4227 30Q4180 72 4180 150ZM4390 57Q4416 57 4450 73Q4484 89 4512 111L4512 283Q4403 283 4347 249Q4292 216 4292 162Q4292 108 4318 82Q4345 57 4390 57ZM4801 58L4801 478L4729 496L4729 550L4872 568L4875 568L4896 550L4896 508L4895 484Q4931 516 4990 542Q5049 568 5103 568Q5166 568 5200 544Q5235 520 5249 470Q5263 421 5263 337L5263 57L5333 50L5333 0L5096 0L5096 49L5158 57L5158 338Q5158 397 5150 430Q5142 464 5120 480Q5098 497 5056 497Q5020 497 4979 479Q4938 461 4906 437L4906 58L4974 49L4974 0L4738 0L4738 49L4801 58ZM5644 -270Q5516 -270 5458 -230Q5401 -189 5401 -118Q5401 -74 5428 -37Q5456 0 5494 19Q5448 45 5448 103Q5448 139 5469 171Q5490 203 5524 220Q5474 242 5447 283Q5421 324 5421 380Q5421 438 5453 481Q5486 524 5539 547Q5593 570 5653 570Q5754 570 5811 528Q5826 543 5857 557Q5888 571 5923 571L5957 571L5957 483L5847 483Q5871 446 5871 397Q5871 338 5841 292Q5812 247 5759 222Q5707 197 5641 197Q5598 197 5564 206Q5550 192 5541 175Q5532 158 5532 142Q5532 106 5556 92Q5580 79 5642 79L5755 79Q5852 79 5899 42Q5946 5 5946 -63Q5946 -120 5905 -168Q5864 -215 5794 -243Q5725 -270 5644 -270ZM5651 252Q5765 252 5765 387Q5765 454 5735 485Q5706 517 5647 517Q5592 517 5560 486Q5528 456 5528 389Q5528 326 5558 289Q5589 252 5651 252ZM5653 -212Q5702 -212 5745 -198Q5789 -183 5816 -155Q5843 -126 5843 -88Q5843 -43 5819 -23Q5795 -2 5726 -2L5608 -2Q5568 -2 5545 3Q5504 -42 5504 -98Q5504 -154 5538 -183Q5572 -212 5653 -212ZM6258 -11Q6137 -11 6073 68Q6010 147 6010 279Q6010 366 6043 432Q6076 498 6135 534Q6195 570 6271 570Q6364 570 6415 518Q6467 467 6470 371Q6470 310 6463 278L6119 278Q6121 179 6165 118Q6209 58 6290 58Q6330 58 6373 72Q6417 87 6441 107L6460 63Q6431 33 6374 11Q6317 -11 6258 -11ZM6120 331L6360 331Q6363 352 6363 374Q6362 439 6335 476Q6309 514 6252 514Q6194 514 6159 472Q6125 430 6120 331Z" fill="#ffffff" style=""></path></g></g></g></svg>